#tb 0: 1/20
#media_type 0: video
#codec_id 0: rawvideo
#dimensions 0: 120x120
#sar 0: 0/1
0,          0,          0,        1,    57600, 0x5246edcf
0,          1,          1,        1,    57600, 0x755dffed
0,          2,          2,        1,    57600, 0xbdda0a77
0,          3,          3,        1,    57600, 0x80712121
0,          4,          4,        1,    57600, 0x218e2292
0,          5,          5,        1,    57600, 0x6027295b
0,          6,          6,        1,    57600, 0x226db365
0,          7,          7,        1,    57600, 0xf6422aaf
0,          8,          8,        1,    57600, 0xad89f8b5
0,          9,          9,        1,    57600, 0xd4a53b50
0,         10,         10,        1,    57600, 0x55ca20c6
0,         11,         11,        1,    57600, 0x6885c178
0,         12,         12,        1,    57600, 0x7cf7f75d
0,         13,         13,        1,    57600, 0xd438b8d9
0,         14,         14,        1,    57600, 0xb0c0c5bc
0,         15,         15,        1,    57600, 0x783cc46b
0,         16,         16,        1,    57600, 0xf6e8c050
0,         17,         17,        1,    57600, 0x3574e2b7
0,         18,         18,        1,    57600, 0xce9a21ec
0,         19,         19,        1,    57600, 0x5044f569
0,         20,         20,        1,    57600, 0x95f79d69
0,         21,         21,        1,    57600, 0xf456af08
